<mxfile host="Electron" modified="2024-05-02T16:06:51.950Z" agent="Mozilla/5.0 (Macintosh; Intel Mac OS X 10_15_7) AppleWebKit/537.36 (KHTML, like Gecko) draw.io/23.1.5 Chrome/120.0.6099.109 Electron/28.1.0 Safari/537.36" etag="8NLZTVuMDkE55PbFj4Oc" version="23.1.5" type="device">
  <diagram name="Page-1" id="8bKUDPTQBF4nbrPJ_BiB">
    <mxGraphModel dx="2954" dy="1214" grid="1" gridSize="10" guides="1" tooltips="1" connect="1" arrows="1" fold="1" page="1" pageScale="1" pageWidth="850" pageHeight="1100" math="0" shadow="0">
      <root>
        <mxCell id="0" />
        <mxCell id="1" parent="0" />
        <mxCell id="B6UhSstdaWsjy1I6Zd1T-25" value="Deployment" style="rounded=1;whiteSpace=wrap;html=1;labelPosition=left;verticalLabelPosition=top;align=right;verticalAlign=bottom;spacing=-35;spacingTop=0;spacingBottom=17;fillColor=#ffe6cc;strokeColor=#d79b00;strokeWidth=2;textOpacity=50;opacity=40;spacingRight=-37;imageHeight=24;arcSize=5;" parent="1" vertex="1">
          <mxGeometry x="30" y="460" width="650" height="210" as="geometry" />
        </mxCell>
        <mxCell id="B6UhSstdaWsjy1I6Zd1T-23" value="Publication" style="rounded=1;whiteSpace=wrap;html=1;labelPosition=left;verticalLabelPosition=top;align=right;verticalAlign=bottom;spacing=-35;spacingTop=0;spacingBottom=17;fillColor=#d5e8d4;strokeColor=#82b366;strokeWidth=2;textOpacity=50;opacity=40;spacingRight=-31;" parent="1" vertex="1">
          <mxGeometry x="30" y="390" width="650" height="60" as="geometry" />
        </mxCell>
        <mxCell id="B6UhSstdaWsjy1I6Zd1T-22" value="Build" style="rounded=1;whiteSpace=wrap;html=1;labelPosition=left;verticalLabelPosition=top;align=right;verticalAlign=bottom;spacing=-35;spacingTop=0;spacingBottom=17;fillColor=#e1d5e7;strokeColor=#9673a6;strokeWidth=2;textOpacity=50;opacity=40;" parent="1" vertex="1">
          <mxGeometry x="30" y="320" width="650" height="60" as="geometry" />
        </mxCell>
        <mxCell id="B6UhSstdaWsjy1I6Zd1T-21" value="Setup" style="rounded=1;whiteSpace=wrap;html=1;labelPosition=left;verticalLabelPosition=top;align=right;verticalAlign=bottom;spacing=-35;spacingTop=0;spacingBottom=17;fillColor=#fff2cc;strokeColor=#d6b656;strokeWidth=2;fontColor=#000000;textOpacity=50;opacity=40;" parent="1" vertex="1">
          <mxGeometry x="30" y="250" width="650" height="60" as="geometry" />
        </mxCell>
        <mxCell id="B6UhSstdaWsjy1I6Zd1T-9" value="CONSUMER" style="rounded=0;whiteSpace=wrap;html=1;fillColor=#f5f5f5;fontColor=#333333;strokeColor=#666666;fontStyle=1;fontSize=15;strokeWidth=2;" parent="1" vertex="1">
          <mxGeometry x="95" y="160" width="150" height="60" as="geometry" />
        </mxCell>
        <mxCell id="B6UhSstdaWsjy1I6Zd1T-10" value="STUDENT PROVIDER" style="rounded=0;whiteSpace=wrap;html=1;fillColor=#f5f5f5;fontColor=#333333;strokeColor=#666666;fontStyle=1;fontSize=15;strokeWidth=2;" parent="1" vertex="1">
          <mxGeometry x="310" y="160" width="150" height="60" as="geometry" />
        </mxCell>
        <mxCell id="B6UhSstdaWsjy1I6Zd1T-11" value="VERIFICATION" style="rounded=0;whiteSpace=wrap;html=1;fillColor=#f5f5f5;fontColor=#333333;strokeColor=#666666;fontStyle=1;fontSize=15;strokeWidth=2;" parent="1" vertex="1">
          <mxGeometry x="740" y="160" width="150" height="60" as="geometry" />
        </mxCell>
        <mxCell id="B6UhSstdaWsjy1I6Zd1T-12" value="" style="endArrow=none;dashed=1;html=1;rounded=0;entryX=0.5;entryY=1;entryDx=0;entryDy=0;strokeWidth=2;" parent="1" source="B6UhSstdaWsjy1I6Zd1T-4" target="B6UhSstdaWsjy1I6Zd1T-9" edge="1">
          <mxGeometry width="50" height="50" relative="1" as="geometry">
            <mxPoint x="170" y="780" as="sourcePoint" />
            <mxPoint x="465" y="410" as="targetPoint" />
          </mxGeometry>
        </mxCell>
        <mxCell id="B6UhSstdaWsjy1I6Zd1T-13" value="" style="endArrow=none;dashed=1;html=1;rounded=0;entryX=0.5;entryY=1;entryDx=0;entryDy=0;strokeWidth=2;" parent="1" source="B6UhSstdaWsjy1I6Zd1T-15" edge="1">
          <mxGeometry width="50" height="50" relative="1" as="geometry">
            <mxPoint x="384.5" y="780" as="sourcePoint" />
            <mxPoint x="384.5" y="220" as="targetPoint" />
          </mxGeometry>
        </mxCell>
        <mxCell id="B6UhSstdaWsjy1I6Zd1T-14" value="" style="endArrow=none;dashed=1;html=1;rounded=0;entryX=0.5;entryY=1;entryDx=0;entryDy=0;strokeWidth=2;" parent="1" edge="1">
          <mxGeometry width="50" height="50" relative="1" as="geometry">
            <mxPoint x="815" y="710" as="sourcePoint" />
            <mxPoint x="814.5" y="220" as="targetPoint" />
          </mxGeometry>
        </mxCell>
        <mxCell id="B6UhSstdaWsjy1I6Zd1T-1" value="pact-cli" style="rounded=0;whiteSpace=wrap;html=1;fillColor=#dae8fc;strokeColor=#6c8ebf;fontStyle=1;fontColor=#4D4D4D;fontSize=15;labelBorderColor=none;strokeWidth=2;" parent="1" vertex="1">
          <mxGeometry x="105" y="260" width="130" height="40" as="geometry" />
        </mxCell>
        <mxCell id="B6UhSstdaWsjy1I6Zd1T-16" value="" style="endArrow=none;dashed=1;html=1;rounded=0;entryX=0.5;entryY=1;entryDx=0;entryDy=0;strokeWidth=2;" parent="1" source="FqqdGD9sB6DLBhOpA5sf-12" target="B6UhSstdaWsjy1I6Zd1T-15" edge="1">
          <mxGeometry width="50" height="50" relative="1" as="geometry">
            <mxPoint x="385" y="710" as="sourcePoint" />
            <mxPoint x="384.5" y="220" as="targetPoint" />
          </mxGeometry>
        </mxCell>
        <mxCell id="B6UhSstdaWsjy1I6Zd1T-15" value="pact-cli" style="rounded=0;whiteSpace=wrap;html=1;fillColor=#dae8fc;strokeColor=#6c8ebf;fontStyle=1;fontColor=#4D4D4D;fontSize=15;labelBorderColor=none;strokeWidth=2;" parent="1" vertex="1">
          <mxGeometry x="320" y="260" width="130" height="40" as="geometry" />
        </mxCell>
        <mxCell id="B6UhSstdaWsjy1I6Zd1T-2" value="consumer" style="rounded=0;whiteSpace=wrap;html=1;fillColor=#dae8fc;strokeColor=#6c8ebf;fontStyle=1;fontColor=#4D4D4D;fontSize=15;labelBorderColor=none;strokeWidth=2;" parent="1" vertex="1">
          <mxGeometry x="105" y="330" width="130" height="40" as="geometry" />
        </mxCell>
        <mxCell id="B6UhSstdaWsjy1I6Zd1T-3" value="student-provider" style="rounded=0;whiteSpace=wrap;html=1;fillColor=#dae8fc;strokeColor=#6c8ebf;fontStyle=1;fontColor=#4D4D4D;fontSize=15;labelBorderColor=none;strokeWidth=2;" parent="1" vertex="1">
          <mxGeometry x="320" y="330" width="130" height="40" as="geometry" />
        </mxCell>
        <mxCell id="B6UhSstdaWsjy1I6Zd1T-17" value="" style="endArrow=none;dashed=1;html=1;rounded=0;entryX=0.5;entryY=1;entryDx=0;entryDy=0;strokeWidth=2;" parent="1" source="B6UhSstdaWsjy1I6Zd1T-7" target="B6UhSstdaWsjy1I6Zd1T-4" edge="1">
          <mxGeometry width="50" height="50" relative="1" as="geometry">
            <mxPoint x="170" y="780" as="sourcePoint" />
            <mxPoint x="170" y="220" as="targetPoint" />
          </mxGeometry>
        </mxCell>
        <mxCell id="B6UhSstdaWsjy1I6Zd1T-4" value="publish-contract" style="rounded=0;whiteSpace=wrap;html=1;fillColor=#dae8fc;strokeColor=#6c8ebf;fontStyle=1;fontColor=#4D4D4D;fontSize=15;labelBorderColor=none;strokeWidth=2;" parent="1" vertex="1">
          <mxGeometry x="105" y="400" width="130" height="40" as="geometry" />
        </mxCell>
        <mxCell id="B6UhSstdaWsjy1I6Zd1T-5" value="can-i-deploy" style="rounded=0;whiteSpace=wrap;html=1;fillColor=#dae8fc;strokeColor=#6c8ebf;fontStyle=1;fontColor=#4D4D4D;fontSize=15;labelBorderColor=none;strokeWidth=2;" parent="1" vertex="1">
          <mxGeometry x="105" y="470" width="130" height="40" as="geometry" />
        </mxCell>
        <mxCell id="B6UhSstdaWsjy1I6Zd1T-18" value="can-i-deploy" style="rounded=0;whiteSpace=wrap;html=1;fillColor=#dae8fc;strokeColor=#6c8ebf;fontStyle=1;fontColor=#4D4D4D;fontSize=15;labelBorderColor=none;strokeWidth=2;" parent="1" vertex="1">
          <mxGeometry x="320" y="470" width="130" height="40" as="geometry" />
        </mxCell>
        <mxCell id="B6UhSstdaWsjy1I6Zd1T-6" value="deploy" style="rounded=0;whiteSpace=wrap;html=1;fillColor=#dae8fc;strokeColor=#6c8ebf;fontStyle=1;fontColor=#4D4D4D;fontSize=15;labelBorderColor=none;strokeWidth=2;" parent="1" vertex="1">
          <mxGeometry x="105" y="540" width="130" height="40" as="geometry" />
        </mxCell>
        <mxCell id="B6UhSstdaWsjy1I6Zd1T-19" value="" style="endArrow=none;dashed=1;html=1;rounded=0;entryX=0.5;entryY=1;entryDx=0;entryDy=0;strokeWidth=2;" parent="1" target="B6UhSstdaWsjy1I6Zd1T-7" edge="1">
          <mxGeometry width="50" height="50" relative="1" as="geometry">
            <mxPoint x="170" y="710" as="sourcePoint" />
            <mxPoint x="170" y="440" as="targetPoint" />
          </mxGeometry>
        </mxCell>
        <mxCell id="B6UhSstdaWsjy1I6Zd1T-7" value="tagging" style="rounded=0;whiteSpace=wrap;html=1;fillColor=#dae8fc;strokeColor=#6c8ebf;fontStyle=1;fontColor=#4D4D4D;fontSize=15;labelBorderColor=none;strokeWidth=2;" parent="1" vertex="1">
          <mxGeometry x="105" y="610" width="130" height="40" as="geometry" />
        </mxCell>
        <mxCell id="B6UhSstdaWsjy1I6Zd1T-30" value="Verification" style="rounded=1;whiteSpace=wrap;html=1;labelPosition=left;verticalLabelPosition=top;align=right;verticalAlign=bottom;spacing=-35;spacingTop=0;spacingBottom=17;fillColor=#dae8fc;strokeColor=#6c8ebf;strokeWidth=2;textOpacity=50;opacity=40;spacingRight=-28;" parent="1" vertex="1">
          <mxGeometry x="685" y="390" width="240" height="60" as="geometry" />
        </mxCell>
        <mxCell id="B6UhSstdaWsjy1I6Zd1T-31" value="verification" style="rounded=0;whiteSpace=wrap;html=1;fillColor=#dae8fc;strokeColor=#6c8ebf;fontStyle=1;fontColor=#4D4D4D;fontSize=15;labelBorderColor=none;strokeWidth=2;" parent="1" vertex="1">
          <mxGeometry x="750" y="400" width="130" height="40" as="geometry" />
        </mxCell>
        <mxCell id="FqqdGD9sB6DLBhOpA5sf-1" value="TEACHER PROVIDER" style="rounded=0;whiteSpace=wrap;html=1;fillColor=#f5f5f5;fontColor=#333333;strokeColor=#666666;fontStyle=1;fontSize=15;strokeWidth=2;" parent="1" vertex="1">
          <mxGeometry x="525" y="160" width="150" height="60" as="geometry" />
        </mxCell>
        <mxCell id="FqqdGD9sB6DLBhOpA5sf-2" value="" style="endArrow=none;dashed=1;html=1;rounded=0;entryX=0.5;entryY=1;entryDx=0;entryDy=0;strokeWidth=2;" parent="1" source="FqqdGD9sB6DLBhOpA5sf-4" edge="1">
          <mxGeometry width="50" height="50" relative="1" as="geometry">
            <mxPoint x="599.5" y="780" as="sourcePoint" />
            <mxPoint x="599.5" y="220" as="targetPoint" />
          </mxGeometry>
        </mxCell>
        <mxCell id="FqqdGD9sB6DLBhOpA5sf-3" value="" style="endArrow=none;dashed=1;html=1;rounded=0;entryX=0.5;entryY=1;entryDx=0;entryDy=0;strokeWidth=2;" parent="1" source="FqqdGD9sB6DLBhOpA5sf-8" target="FqqdGD9sB6DLBhOpA5sf-4" edge="1">
          <mxGeometry width="50" height="50" relative="1" as="geometry">
            <mxPoint x="600" y="710" as="sourcePoint" />
            <mxPoint x="599.5" y="220" as="targetPoint" />
          </mxGeometry>
        </mxCell>
        <mxCell id="FqqdGD9sB6DLBhOpA5sf-4" value="pact-cli" style="rounded=0;whiteSpace=wrap;html=1;fillColor=#dae8fc;strokeColor=#6c8ebf;fontStyle=1;fontColor=#4D4D4D;fontSize=15;labelBorderColor=none;strokeWidth=2;" parent="1" vertex="1">
          <mxGeometry x="535" y="260" width="130" height="40" as="geometry" />
        </mxCell>
        <mxCell id="FqqdGD9sB6DLBhOpA5sf-5" value="teacher-provider" style="rounded=0;whiteSpace=wrap;html=1;fillColor=#dae8fc;strokeColor=#6c8ebf;fontStyle=1;fontColor=#4D4D4D;fontSize=15;labelBorderColor=none;strokeWidth=2;" parent="1" vertex="1">
          <mxGeometry x="535" y="330" width="130" height="40" as="geometry" />
        </mxCell>
        <mxCell id="FqqdGD9sB6DLBhOpA5sf-9" value="" style="endArrow=none;dashed=1;html=1;rounded=0;entryX=0.5;entryY=1;entryDx=0;entryDy=0;strokeWidth=2;" parent="1" target="FqqdGD9sB6DLBhOpA5sf-8" edge="1">
          <mxGeometry width="50" height="50" relative="1" as="geometry">
            <mxPoint x="600" y="710" as="sourcePoint" />
            <mxPoint x="600" y="300" as="targetPoint" />
          </mxGeometry>
        </mxCell>
        <mxCell id="FqqdGD9sB6DLBhOpA5sf-8" value="publish-openapi" style="rounded=0;whiteSpace=wrap;html=1;fillColor=#dae8fc;strokeColor=#6c8ebf;fontStyle=1;fontColor=#4D4D4D;fontSize=15;labelBorderColor=none;strokeWidth=2;" parent="1" vertex="1">
          <mxGeometry x="535" y="400" width="130" height="40" as="geometry" />
        </mxCell>
        <mxCell id="FqqdGD9sB6DLBhOpA5sf-6" value="can-i-deploy" style="rounded=0;whiteSpace=wrap;html=1;fillColor=#dae8fc;strokeColor=#6c8ebf;fontStyle=1;fontColor=#4D4D4D;fontSize=15;labelBorderColor=none;strokeWidth=2;" parent="1" vertex="1">
          <mxGeometry x="535" y="470" width="130" height="40" as="geometry" />
        </mxCell>
        <mxCell id="FqqdGD9sB6DLBhOpA5sf-10" value="deploy" style="rounded=0;whiteSpace=wrap;html=1;fillColor=#dae8fc;strokeColor=#6c8ebf;fontStyle=1;fontColor=#4D4D4D;fontSize=15;labelBorderColor=none;strokeWidth=2;" parent="1" vertex="1">
          <mxGeometry x="320" y="540" width="130" height="40" as="geometry" />
        </mxCell>
        <mxCell id="FqqdGD9sB6DLBhOpA5sf-11" value="deploy" style="rounded=0;whiteSpace=wrap;html=1;fillColor=#dae8fc;strokeColor=#6c8ebf;fontStyle=1;fontColor=#4D4D4D;fontSize=15;labelBorderColor=none;strokeWidth=2;" parent="1" vertex="1">
          <mxGeometry x="535" y="540" width="130" height="40" as="geometry" />
        </mxCell>
        <mxCell id="FqqdGD9sB6DLBhOpA5sf-13" value="" style="endArrow=none;dashed=1;html=1;rounded=0;entryX=0.5;entryY=1;entryDx=0;entryDy=0;strokeWidth=2;" parent="1" target="FqqdGD9sB6DLBhOpA5sf-12" edge="1">
          <mxGeometry width="50" height="50" relative="1" as="geometry">
            <mxPoint x="385" y="710" as="sourcePoint" />
            <mxPoint x="385" y="300" as="targetPoint" />
          </mxGeometry>
        </mxCell>
        <mxCell id="FqqdGD9sB6DLBhOpA5sf-12" value="tagging" style="rounded=0;whiteSpace=wrap;html=1;fillColor=#dae8fc;strokeColor=#6c8ebf;fontStyle=1;fontColor=#4D4D4D;fontSize=15;labelBorderColor=none;strokeWidth=2;" parent="1" vertex="1">
          <mxGeometry x="320" y="610" width="130" height="40" as="geometry" />
        </mxCell>
        <mxCell id="FqqdGD9sB6DLBhOpA5sf-14" value="tagging" style="rounded=0;whiteSpace=wrap;html=1;fillColor=#dae8fc;strokeColor=#6c8ebf;fontStyle=1;fontColor=#4D4D4D;fontSize=15;labelBorderColor=none;strokeWidth=2;" parent="1" vertex="1">
          <mxGeometry x="535" y="610" width="130" height="40" as="geometry" />
        </mxCell>
        <mxCell id="FqqdGD9sB6DLBhOpA5sf-16" value="" style="group" parent="1" vertex="1" connectable="0">
          <mxGeometry x="280" y="30" width="420" height="70" as="geometry" />
        </mxCell>
        <mxCell id="B6UhSstdaWsjy1I6Zd1T-44" value="&lt;b&gt;&lt;font&gt;Legend&lt;/font&gt;&lt;/b&gt;" style="rounded=1;whiteSpace=wrap;html=1;labelPosition=left;verticalLabelPosition=top;align=right;verticalAlign=bottom;fillColor=#bac8d3;strokeColor=#23445d;opacity=40;spacingRight=-32;spacing=-16;fontColor=#808080;" parent="FqqdGD9sB6DLBhOpA5sf-16" vertex="1">
          <mxGeometry width="420" height="70" as="geometry" />
        </mxCell>
        <mxCell id="B6UhSstdaWsjy1I6Zd1T-40" value="GitLab&#39;s job" style="rounded=0;whiteSpace=wrap;html=1;fillColor=#dae8fc;strokeColor=#6c8ebf;fontStyle=0;fontColor=#4D4D4D;fontSize=12;labelBorderColor=none;strokeWidth=2;" parent="FqqdGD9sB6DLBhOpA5sf-16" vertex="1">
          <mxGeometry x="158.025" y="29" width="103.95" height="20" as="geometry" />
        </mxCell>
        <mxCell id="B6UhSstdaWsjy1I6Zd1T-41" value="&lt;font style=&quot;font-size: 12px;&quot;&gt;Logical pipeline&lt;/font&gt;" style="rounded=0;whiteSpace=wrap;html=1;fillColor=#f5f5f5;fontColor=#333333;strokeColor=#666666;fontStyle=0;fontSize=15;strokeWidth=2;" parent="FqqdGD9sB6DLBhOpA5sf-16" vertex="1">
          <mxGeometry x="21" y="29" width="103.95" height="20" as="geometry" />
        </mxCell>
        <mxCell id="B6UhSstdaWsjy1I6Zd1T-42" value="" style="group;" parent="FqqdGD9sB6DLBhOpA5sf-16" vertex="1" connectable="0">
          <mxGeometry x="294" y="19" width="105" height="40" as="geometry" />
        </mxCell>
        <mxCell id="B6UhSstdaWsjy1I6Zd1T-33" value="GitLab&#39;s stages" style="rounded=1;whiteSpace=wrap;html=1;labelPosition=center;verticalLabelPosition=middle;align=center;verticalAlign=middle;spacing=0;spacingTop=0;spacingBottom=0;fillColor=#fff2cc;strokeColor=#d6b656;strokeWidth=2;textOpacity=80;opacity=40;spacingRight=0;imageHeight=24;arcSize=5;" parent="B6UhSstdaWsjy1I6Zd1T-42" vertex="1">
          <mxGeometry width="105" height="20" as="geometry" />
        </mxCell>
        <mxCell id="B6UhSstdaWsjy1I6Zd1T-38" value="" style="group" parent="B6UhSstdaWsjy1I6Zd1T-42" vertex="1" connectable="0">
          <mxGeometry y="20" width="103.95" height="20" as="geometry" />
        </mxCell>
        <mxCell id="B6UhSstdaWsjy1I6Zd1T-35" value="" style="rounded=1;whiteSpace=wrap;html=1;labelPosition=left;verticalLabelPosition=top;align=right;verticalAlign=bottom;spacing=-35;spacingTop=0;spacingBottom=17;fillColor=#d5e8d4;strokeColor=#82b366;strokeWidth=2;textOpacity=50;opacity=40;" parent="B6UhSstdaWsjy1I6Zd1T-38" vertex="1">
          <mxGeometry x="25.9875" width="25.9875" height="20" as="geometry" />
        </mxCell>
        <mxCell id="B6UhSstdaWsjy1I6Zd1T-36" value="" style="rounded=1;whiteSpace=wrap;html=1;labelPosition=left;verticalLabelPosition=top;align=right;verticalAlign=bottom;spacing=-35;spacingTop=0;spacingBottom=17;fillColor=#dae8fc;strokeColor=#6c8ebf;strokeWidth=2;textOpacity=50;opacity=40;" parent="B6UhSstdaWsjy1I6Zd1T-38" vertex="1">
          <mxGeometry x="51.975" width="25.9875" height="20" as="geometry" />
        </mxCell>
        <mxCell id="B6UhSstdaWsjy1I6Zd1T-37" value="" style="rounded=1;whiteSpace=wrap;html=1;labelPosition=left;verticalLabelPosition=top;align=right;verticalAlign=bottom;spacing=-35;spacingTop=0;spacingBottom=17;fillColor=#ffe6cc;strokeColor=#d79b00;strokeWidth=2;textOpacity=50;opacity=40;" parent="B6UhSstdaWsjy1I6Zd1T-38" vertex="1">
          <mxGeometry x="77.9625" width="25.9875" height="20" as="geometry" />
        </mxCell>
        <mxCell id="B6UhSstdaWsjy1I6Zd1T-34" value="" style="rounded=1;whiteSpace=wrap;html=1;labelPosition=left;verticalLabelPosition=top;align=right;verticalAlign=bottom;spacing=-35;spacingTop=0;spacingBottom=17;fillColor=#e1d5e7;strokeColor=#9673a6;strokeWidth=2;textOpacity=50;opacity=40;" parent="B6UhSstdaWsjy1I6Zd1T-38" vertex="1">
          <mxGeometry width="25.9875" height="20" as="geometry" />
        </mxCell>
        <mxCell id="5pOPKQ_iItzQC-kYYhlO-1" value="&lt;i&gt;&lt;font style=&quot;font-size: 13px;&quot; color=&quot;#4d4d4d&quot;&gt;Only for consumer-driven&lt;/font&gt;&lt;/i&gt;" style="text;html=1;align=center;verticalAlign=middle;whiteSpace=wrap;rounded=0;" vertex="1" parent="1">
          <mxGeometry x="738" y="136" width="150" height="30" as="geometry" />
        </mxCell>
      </root>
    </mxGraphModel>
  </diagram>
</mxfile>
